<svg id="Layer_1" data-name="Layer 1" xmlns="http://www.w3.org/2000/svg" viewBox="0 0 300 249.93"><defs><style>.cls-1{fill:#f1f1f1;}</style></defs><path class="cls-1" d="M199,94.46a28.84,28.84,0,0,0,22.48,10.86h77A148.7,148.7,0,0,0,281.2,52.63H183.73L150.45,10.86A28.81,28.81,0,0,0,128,0H109.4C72.15,0,37.05,19.44,18.94,52l-.36.64H165.73Z"/><path class="cls-1" d="M170.34,125l33.33,41.83a28.81,28.81,0,0,0,22.48,10.8h64.08A148.19,148.19,0,0,0,299.79,125Z"/><path class="cls-1" d="M96.06,83.13A28.68,28.68,0,0,0,73.58,72.28h-64A148.68,148.68,0,0,0,0,125H129.39Z"/><path class="cls-1" d="M100.72,155.47a28.75,28.75,0,0,0-22.48-10.86H1.3a148.11,148.11,0,0,0,17.23,52.63H116l33.33,41.83a28.75,28.75,0,0,0,22.48,10.86h18.6c37.18,0,72.16-19.39,90.36-51.82.17-.29.33-.58.49-.87H134.05Z"/></svg>